#!OML:ASF X:\für Bonn\!DataBase\2005_08_10_Bjorn_Final\c3d\bjorn.ASF
:FULLY-SPECIFIED
:DEGREES
62
root 1.55904 18.5823 6.02308 -181.877 -9.8878 -178.416
lowerback -0.727488 -0.761514 -0.382967
upperback 9.40264 -1.63281 -2.80661
thorax 10.3102 -1.03789 -3.00691
lowerneck -2.23554 4.57555 2.40916
upperneck 24.0828 4.57077 -2.04674
head 7.88935 1.469 -0.850412
rclavicle 3.22031e-014 3.33958e-014
rhumerus -35.2822 -15.6632 -81.7067
rradius 32.5514
rwrist 2.35085
rhand -7.33246 9.3951
rfingers 7.12502
rthumb 18.5511 -19.7403
lclavicle 3.22031e-014 3.33958e-014
lhumerus -25.2153 -21.0336 86.5901
lradius 43.4824
lwrist -17.7052
lhand -13.7238 -6.30946
lfingers 7.12502
lthumb 12.3954 23.303
rfemur -30.666 -6.57327 18.5341
rtibia 49.3526
rfoot -17.834 13.7423
rtoes -11.539
lfemur -4.50943 13.457 -15.514
ltibia 36.8863
lfoot -23.5128 -10.8255
ltoes -2.21057
63
root 1.55874 18.5758 5.98009 -181.842 -9.83919 -178.474
lowerback -0.677232 -0.748413 -0.27509
upperback 9.44536 -1.63504 -2.68128
thorax 10.3286 -1.03703 -2.93317
lowerneck -2.31639 4.61291 2.50305
upperneck 24.0218 4.68727 -2.29553
head 7.89489 1.51893 -0.937128
rclavicle 2.54444e-014 -1.74931e-014
rhumerus -35.0952 -15.4119 -81.8033
rradius 32.621
rwrist 2.29619
rhand -7.30537 9.34506
rfingers 7.12502
rthumb 18.5771 -19.7879
lclavicle 2.54444e-014 -1.74931e-014
lhumerus -25.2275 -21.2589 86.6767
lradius 43.922
lwrist -17.611
lhand -13.6683 -6.28047
lfingers 7.12502
lthumb 12.4489 23.3288
rfemur -30.6845 -6.43327 18.4737
rtibia 49.0723
rfoot -17.7254 13.5709
rtoes -11.1616
lfemur -4.33592 13.5241 -15.5161
ltibia 36.8132
lfoot -23.6018 -10.8773
ltoes -2.04719
64
root 1.55865 18.5676 5.93646 -181.785 -9.78281 -178.532
lowerback -0.653724 -0.738726 -0.176476
upperback 9.48031 -1.63999 -2.54083
thorax 10.3548 -1.03805 -2.83886
lowerneck -2.27708 4.6524 2.55813
upperneck 23.8535 4.81614 -2.54947
head 7.84245 1.5745 -1.01964
rclavicle 2.3059e-014 4.45278e-014
rhumerus -34.8887 -15.169 -81.8711
rradius 32.6642
rwrist 2.30888
rhand -7.19038 9.29519
rfingers 7.12502
rthumb 18.6877 -19.8272
lclavicle 2.3059e-014 4.45278e-014
lhumerus -25.2365 -21.4367 86.7792
lradius 44.346
lwrist -17.5276
lhand -13.6126 -6.27255
lfingers 7.12502
lthumb 12.5026 23.3334
rfemur -30.7185 -6.29084 18.4201
rtibia 48.8059
rfoot -17.6136 13.3395
rtoes -11.1617
lfemur -4.18676 13.5052 -15.5445
ltibia 36.7501
lfoot -23.6994 -10.8525
ltoes -1.97324
65
root 1.55833 18.559 5.89223 -181.751 -9.73044 -178.618
lowerback -0.604212 -0.725088 -0.0864084
upperback 9.53311 -1.64319 -2.4151
thorax 10.3856 -1.04019 -2.75556
lowerneck -2.24065 4.69596 2.57239
upperneck 23.6775 4.94225 -2.74216
head 7.78558 1.63147 -1.07504
rclavicle 1.82882e-014 2.3059e-014
rhumerus -34.6493 -14.8981 -81.9796
rradius 32.6926
rwrist 2.28367
rhand -7.04799 9.19001
rfingers 7.12502
rthumb 18.8247 -19.9191
lclavicle 1.82882e-014 2.3059e-014
lhumerus -25.2133 -21.5766 86.8686
lradius 44.74
lwrist -17.4904
lhand -13.562 -6.27016
lfingers 7.12502
lthumb 12.5514 23.3328
rfemur -30.7138 -6.15187 18.3336
rtibia 48.555
rfoot -17.4815 13.1103
rtoes -11.2945
lfemur -4.01052 13.4905 -15.5971
ltibia 36.6973
lfoot -23.8098 -10.8312
ltoes -1.81923
66
root 1.55837 18.5494 5.84735 -181.706 -9.69081 -178.689
lowerback -0.565134 -0.711465 0.031576
upperback 9.56953 -1.64534 -2.28247
thorax 10.4039 -1.03858 -2.6798
lowerneck -2.22117 4.74408 2.58376
upperneck 23.5881 5.06599 -2.94759
head 7.76139 1.68057 -1.13475
rclavicle -1.66979e-014 -3.10104e-014
rhumerus -34.4285 -14.5925 -82.0786
rradius 32.6889
rwrist 2.22627
rhand -6.89876 9.09727
rfingers 7.12502
rthumb 18.9682 -19.9978
lclavicle -1.66979e-014 -3.10104e-014
lhumerus -25.2089 -21.7264 86.9698
lradius 45.1369
lwrist -17.4577
lhand -13.5 -6.27479
lfingers 7.12502
lthumb 12.6112 23.3245
rfemur -30.7139 -6.02296 18.2665
rtibia 48.3263
rfoot -17.2861 13.0295
rtoes -11.2461
lfemur -3.85238 13.4043 -15.6524
ltibia 36.6501
lfoot -23.9418 -10.726
ltoes -1.85162
67
root 1.55914 18.5388 5.80192 -181.673 -9.64896 -178.776
lowerback -0.515351 -0.683794 0.1394
upperback 9.61861 -1.63156 -2.13793
thorax 10.4314 -1.03168 -2.58448
lowerneck -2.22018 4.7774 2.54451
upperneck 23.4869 5.17953 -3.16685
head 7.73526 1.72046 -1.19077
rclavicle 4.37326e-015 -7.95139e-015
rhumerus -34.1959 -14.3115 -82.1433
rradius 32.6803
rwrist 2.20999
rhand -6.73052 9.00572
rfingers 7.12502
rthumb 19.13 -20.0735
lclavicle 4.37326e-015 -7.95139e-015
lhumerus -25.1843 -21.9333 87.0987
lradius 45.52
lwrist -17.3833
lhand -13.5145 -6.30958
lfingers 7.12502
lthumb 12.5972 23.2906
rfemur -30.6885 -5.86303 18.1844
rtibia 48.1175
rfoot -17.0497 13.0202
rtoes -11.1901
lfemur -3.67957 13.2892 -15.7274
ltibia 36.6124
lfoot -24.0821 -10.5813
ltoes -1.80583
